# xmcd CD database file
#
# Track frame offsets:
#	150
#	16512
#	36488
#	60547
#	85976
#	109646
#	128435
#	154638
#	176325
#	194720
#	218415
#	241703
#
# Disc length: 3473 seconds
#
# Revision: 3
# Processed by: cddbd v1.5.2PL0 Copyright (c) Steve Scherf et al.
# Submitted via: CDex 1.51
#
DISCID=8b0d8f0c
DTITLE=SONORA CARRUSELES - CON TODOS LOS HIERROS
DYEAR=2000
DGENRE=Salsa
TTITLE0=ARRANCA EN FA
TTITLE1=QUE SUENE MI CAMPANA
TTITLE2=MOSAICO 5
TTITLE3=MOSAICO 2
TTITLE4=LA RUMBA BUENA
TTITLE5=MOSAICO 3
TTITLE6=MOSAICO 4
TTITLE7=CHANGARAL
TTITLE8=LO ATARA LA ARACHE
TTITLE9=MOSAICO 1
TTITLE10=QUE ME ENTIERREN CON RUMBA
TTITLE11=EL BAILARIN DE LA AVENIDA
EXTD=YEAR: 2000
EXTT0=
EXTT1=
EXTT2=
EXTT3=
EXTT4=
EXTT5=
EXTT6=
EXTT7=
EXTT8=
EXTT9=
EXTT10=
EXTT11=
PLAYORDER=
